<svg xmlns="http://www.w3.org/2000/svg" width="158.788" height="41.856" viewBox="0 0 158.788 41.856">
  <g id="br-black" transform="translate(-115.996 -50.558)">
    <path id="Subtraction_1" data-name="Subtraction 1" d="M0,41.856l0,0C2.466,39.4,3.361,34.424,3.678,30.683A18.168,18.168,0,0,1,0,19.788C0,8.877,9.971,0,22.227,0A23.534,23.534,0,0,1,37.944,5.8a18.634,18.634,0,0,1,6.509,13.993,18.626,18.626,0,0,1-6.511,13.99A23.535,23.535,0,0,1,22.228,39.57h-.068a24.292,24.292,0,0,1-9.38-1.874C7.741,40.716.319,41.81.006,41.855ZM17.189,23.4a2.169,2.169,0,1,0,1.533.635A2.155,2.155,0,0,0,17.189,23.4Zm-.345-5.674a1.163,1.163,0,0,0-1.18,1.241,1.416,1.416,0,0,0,.423.935,1.437,1.437,0,0,0,.942.426l1.02.047a4.7,4.7,0,0,1,4.4,4.363l.047.719A1.445,1.445,0,0,0,23.849,26.8c.023,0,.045,0,.067,0a1.172,1.172,0,0,0,.833-.335,1.146,1.146,0,0,0,.338-.89l-.023-.718q0-.065-.011-.129l-.009-.129c0-.01,0-.02,0-.03s0-.023,0-.037a7.616,7.616,0,0,0-7.11-6.761l-.426-.02-.592-.027Zm1.606-2.548h.006a9.847,9.847,0,0,1,9.205,9.047l.032.874a1.312,1.312,0,0,0,1.25,1.234h.043a1.122,1.122,0,0,0,.82-.341,1.087,1.087,0,0,0,.3-.807l-.022-.615-.018-.493a1.165,1.165,0,0,0-.038-.25,12.526,12.526,0,0,0-11.6-11.034l-.041-.005-.041-.005-1.119-.041h-.046A1.1,1.1,0,0,0,16.074,13.9a1.307,1.307,0,0,0,1.245,1.241l1.117.041Z" transform="translate(115.996 50.558)"/>
    <path id="Path_8990" data-name="Path 8990" d="M4.515-7.117H9.4a2.678,2.678,0,0,0,1.8-.611,2.183,2.183,0,0,0,.719-1.761,2.23,2.23,0,0,0-.647-1.821A2.894,2.894,0,0,0,9.4-11.836H4.515ZM1.52-14.28H9.833a5.951,5.951,0,0,1,3.689,1.054,3.745,3.745,0,0,1,1.389,3.186,3.812,3.812,0,0,1-.635,2.216A4.078,4.078,0,0,1,12.468-6.4v.048a3.738,3.738,0,0,1,2.4,1.5,4.949,4.949,0,0,1,.815,2.911,4.9,4.9,0,0,1-.359,1.881,3.833,3.833,0,0,1-1.126,1.509,5.684,5.684,0,0,1-1.964,1.006,9.684,9.684,0,0,1-2.851.371H1.52ZM4.515.381H9.809a2.983,2.983,0,0,0,2.12-.707,2.607,2.607,0,0,0,.755-2,2.5,2.5,0,0,0-.755-1.952,3.049,3.049,0,0,0-2.12-.683H4.515ZM18.074-14.28h2.731v2.587H18.074Zm0,4.719h2.731V2.825H18.074ZM35.227,2.178a5.271,5.271,0,0,1-1.569,4.18,6.64,6.64,0,0,1-4.516,1.378,9.454,9.454,0,0,1-1.881-.192A5.588,5.588,0,0,1,25.536,6.9a4.158,4.158,0,0,1-1.306-1.2,3.641,3.641,0,0,1-.623-1.821h2.731a2.187,2.187,0,0,0,.407.934,2.1,2.1,0,0,0,.683.563,2.6,2.6,0,0,0,.874.264,8.114,8.114,0,0,0,1.006.06,3.185,3.185,0,0,0,2.42-.815A3.3,3.3,0,0,0,32.5,2.537V.645h-.048A4.154,4.154,0,0,1,30.879,2.25a4.211,4.211,0,0,1-2.144.575,5.659,5.659,0,0,1-2.527-.515A4.808,4.808,0,0,1,24.482.9a5.873,5.873,0,0,1-.994-2.072,9.778,9.778,0,0,1-.311-2.515,7.309,7.309,0,0,1,.383-2.372,6.046,6.046,0,0,1,1.1-1.976,5.278,5.278,0,0,1,1.761-1.354,5.36,5.36,0,0,1,2.36-.5,4.753,4.753,0,0,1,2.156.491A3.333,3.333,0,0,1,32.448-7.86H32.5v-1.7h2.731ZM29.166.669A3.012,3.012,0,0,0,30.711.3a3.033,3.033,0,0,0,1.03-.982,4.324,4.324,0,0,0,.575-1.389,6.957,6.957,0,0,0,.18-1.569A6.111,6.111,0,0,0,32.3-5.177a4.121,4.121,0,0,0-.587-1.318,2.837,2.837,0,0,0-1.03-.91,3.217,3.217,0,0,0-1.521-.335,2.874,2.874,0,0,0-1.533.383,3.07,3.07,0,0,0-1.006.994,4.29,4.29,0,0,0-.551,1.389,7.322,7.322,0,0,0-.168,1.545,5.877,5.877,0,0,0,.192,1.5,4.135,4.135,0,0,0,.587,1.306A3.132,3.132,0,0,0,27.693.31,2.857,2.857,0,0,0,29.166.669Zm9.2-14.949h8.169a6.338,6.338,0,0,1,4.24,1.222,4.257,4.257,0,0,1,1.413,3.4,4.967,4.967,0,0,1-.359,2.024,4.419,4.419,0,0,1-.838,1.294,3.275,3.275,0,0,1-.946.707q-.467.216-.683.287V-5.3a3.056,3.056,0,0,1,.827.24,2.439,2.439,0,0,1,.826.611,3.327,3.327,0,0,1,.635,1.09A4.818,4.818,0,0,1,51.9-1.679a15.175,15.175,0,0,0,.228,2.743,3.609,3.609,0,0,0,.707,1.761h-3.21a2.8,2.8,0,0,1-.4-1.222Q49.17.932,49.17.31a12.332,12.332,0,0,0-.144-2.024A3.53,3.53,0,0,0,48.5-3.128a2.23,2.23,0,0,0-1.042-.826,4.6,4.6,0,0,0-1.689-.264H41.36V2.825H38.365ZM41.36-6.494h4.911a3.116,3.116,0,0,0,2.18-.683,2.648,2.648,0,0,0,.743-2.048,3.168,3.168,0,0,0-.24-1.33,1.937,1.937,0,0,0-.659-.8,2.421,2.421,0,0,0-.958-.383,6.354,6.354,0,0,0-1.114-.1H41.36ZM65.22.07a1.449,1.449,0,0,0,.132.719A.556.556,0,0,0,65.867,1h.287a1.79,1.79,0,0,0,.383-.048V2.849q-.144.048-.371.108t-.467.108q-.24.048-.479.072t-.407.024a2.633,2.633,0,0,1-1.389-.335A1.67,1.67,0,0,1,62.7,1.651a4.83,4.83,0,0,1-2,1.15,7.877,7.877,0,0,1-2.288.359,5.61,5.61,0,0,1-1.605-.228,4.212,4.212,0,0,1-1.354-.671,3.215,3.215,0,0,1-.934-1.126,3.469,3.469,0,0,1-.347-1.593A3.679,3.679,0,0,1,54.6-2.326a3.106,3.106,0,0,1,1.1-1.126,4.977,4.977,0,0,1,1.533-.587q.85-.18,1.713-.276a14.014,14.014,0,0,1,1.413-.2,6.633,6.633,0,0,0,1.186-.2,1.816,1.816,0,0,0,.815-.443,1.22,1.22,0,0,0,.3-.9,1.4,1.4,0,0,0-.252-.862,1.688,1.688,0,0,0-.623-.515,2.691,2.691,0,0,0-.827-.24,6.623,6.623,0,0,0-.862-.06,3.431,3.431,0,0,0-1.893.479,1.869,1.869,0,0,0-.838,1.485H54.632a4.111,4.111,0,0,1,.575-1.988,3.972,3.972,0,0,1,1.282-1.27A5.244,5.244,0,0,1,58.249-9.7,10.484,10.484,0,0,1,60.261-9.9a8.478,8.478,0,0,1,1.8.192,5.1,5.1,0,0,1,1.593.623,3.45,3.45,0,0,1,1.138,1.114A3.056,3.056,0,0,1,65.22-6.3ZM62.489-3.38a3.315,3.315,0,0,1-1.533.491q-.91.084-1.821.252a5.838,5.838,0,0,0-.838.2,2.525,2.525,0,0,0-.719.359,1.578,1.578,0,0,0-.491.6,2.048,2.048,0,0,0-.18.9,1.146,1.146,0,0,0,.264.767,1.914,1.914,0,0,0,.635.491,2.939,2.939,0,0,0,.815.252,5.056,5.056,0,0,0,.8.072,4.448,4.448,0,0,0,.982-.12A3.267,3.267,0,0,0,61.4.477a2.617,2.617,0,0,0,.779-.731,1.848,1.848,0,0,0,.311-1.09Zm17.345,6.2H77.247V1.148H77.2a3.244,3.244,0,0,1-1.605,1.545,5.438,5.438,0,0,1-2.228.467,5.915,5.915,0,0,1-2.551-.515,5.089,5.089,0,0,1-1.809-1.4,6,6,0,0,1-1.078-2.1,9.088,9.088,0,0,1-.359-2.6,8.305,8.305,0,0,1,.455-2.9,5.8,5.8,0,0,1,1.21-2.012,4.677,4.677,0,0,1,1.725-1.162A5.488,5.488,0,0,1,72.934-9.9a6.619,6.619,0,0,1,1.174.108,5.171,5.171,0,0,1,1.15.347,4.534,4.534,0,0,1,1.018.611,3.386,3.386,0,0,1,.779.874H77.1V-14.28h2.731ZM70.3-3.236a6.04,6.04,0,0,0,.2,1.557,4.269,4.269,0,0,0,.623,1.366,3.152,3.152,0,0,0,1.066.958A3.109,3.109,0,0,0,73.725,1,3.067,3.067,0,0,0,75.294.621,3.253,3.253,0,0,0,76.372-.385,4.55,4.55,0,0,0,77-1.787a6.27,6.27,0,0,0,.2-1.593,5,5,0,0,0-.922-3.21,3.039,3.039,0,0,0-2.5-1.15,3.091,3.091,0,0,0-1.617.4,3.324,3.324,0,0,0-1.078,1.03,4.278,4.278,0,0,0-.6,1.437A7.488,7.488,0,0,0,70.3-3.236ZM93.178.07a1.449,1.449,0,0,0,.132.719A.556.556,0,0,0,93.825,1h.287A1.79,1.79,0,0,0,94.5.956V2.849q-.144.048-.371.108t-.467.108q-.24.048-.479.072t-.407.024a2.633,2.633,0,0,1-1.389-.335,1.67,1.67,0,0,1-.719-1.174,4.83,4.83,0,0,1-2,1.15,7.877,7.877,0,0,1-2.288.359,5.61,5.61,0,0,1-1.605-.228,4.212,4.212,0,0,1-1.354-.671,3.215,3.215,0,0,1-.934-1.126,3.469,3.469,0,0,1-.347-1.593,3.679,3.679,0,0,1,.419-1.869,3.106,3.106,0,0,1,1.1-1.126,4.977,4.977,0,0,1,1.533-.587q.85-.18,1.713-.276a14.014,14.014,0,0,1,1.413-.2,6.633,6.633,0,0,0,1.186-.2,1.816,1.816,0,0,0,.815-.443,1.22,1.22,0,0,0,.3-.9,1.4,1.4,0,0,0-.252-.862,1.688,1.688,0,0,0-.623-.515,2.691,2.691,0,0,0-.826-.24,6.624,6.624,0,0,0-.862-.06,3.431,3.431,0,0,0-1.893.479,1.869,1.869,0,0,0-.838,1.485H82.589a4.111,4.111,0,0,1,.575-1.988,3.972,3.972,0,0,1,1.282-1.27A5.244,5.244,0,0,1,86.206-9.7,10.484,10.484,0,0,1,88.219-9.9a8.478,8.478,0,0,1,1.8.192,5.1,5.1,0,0,1,1.593.623,3.45,3.45,0,0,1,1.138,1.114A3.057,3.057,0,0,1,93.178-6.3ZM90.447-3.38a3.315,3.315,0,0,1-1.533.491q-.91.084-1.821.252a5.837,5.837,0,0,0-.838.2,2.525,2.525,0,0,0-.719.359,1.578,1.578,0,0,0-.491.6,2.048,2.048,0,0,0-.18.9,1.146,1.146,0,0,0,.264.767,1.914,1.914,0,0,0,.635.491,2.94,2.94,0,0,0,.815.252,5.056,5.056,0,0,0,.8.072,4.448,4.448,0,0,0,.982-.12,3.267,3.267,0,0,0,.994-.407,2.617,2.617,0,0,0,.779-.731,1.848,1.848,0,0,0,.311-1.09Zm5.678-6.181h2.563v2.4h.048a2.765,2.765,0,0,1,.467-.982,4.555,4.555,0,0,1,.838-.874,4.237,4.237,0,0,1,1.09-.635,3.263,3.263,0,0,1,1.222-.24,5.925,5.925,0,0,1,.659.024l.371.048v2.635q-.287-.048-.587-.084a4.924,4.924,0,0,0-.587-.036,3.139,3.139,0,0,0-1.306.276,3,3,0,0,0-1.066.815,3.992,3.992,0,0,0-.719,1.33,5.754,5.754,0,0,0-.264,1.821V2.825H96.124Z" transform="translate(171.401 75.812)"/>
  </g>
</svg>
