<svg xmlns="http://www.w3.org/2000/svg" width="58.549" height="58.043" viewBox="0 0 58.549 58.043">
  <g id="customer" transform="translate(-698.494 -1091.957)">
    <rect id="Rectangle_146" data-name="Rectangle 146" width="47" height="47" rx="9" transform="translate(698.494 1103)" fill="#fdb137"/>
    <g id="target-audience" transform="translate(706 1091.957)">
      <path id="Path_10775" data-name="Path 10775" d="M151.2,138.784v.94a.747.747,0,0,0,.32.613,17.669,17.669,0,0,0,2.74,1.568.748.748,0,0,0,.623-1.359,16.161,16.161,0,0,1-2.188-1.217v-.544a8.952,8.952,0,0,1,17.9,0v.545a16.273,16.273,0,0,1-12.6,2.277.748.748,0,1,0-.336,1.457,17.764,17.764,0,0,0,14.113-2.725.748.748,0,0,0,.32-.613v-.94a10.461,10.461,0,0,0-6.96-9.852,7.138,7.138,0,0,0,3.473-4.557.748.748,0,0,0-1.453-.355,5.67,5.67,0,1,1-.045-2.88.748.748,0,0,0,1.44-.4,7.167,7.167,0,1,0-10.377,8.194,10.464,10.464,0,0,0-6.975,9.852Z" transform="translate(-136.126 -103.985)"/>
      <path id="Path_10776" data-name="Path 10776" d="M48.8,23.278H46.086A20.689,20.689,0,0,0,27.765,4.956V2.243a2.243,2.243,0,1,0-4.486,0V4.956A20.582,20.582,0,0,0,8.453,13.831a.748.748,0,1,0,1.233.846A19.1,19.1,0,0,1,23.278,6.462V8.225a2.243,2.243,0,1,0,4.486,0V6.461A19.3,19.3,0,0,1,44.582,23.278H42.818a2.243,2.243,0,0,0,0,4.486h1.764A19.3,19.3,0,0,1,27.765,44.582V42.818a2.243,2.243,0,0,0-4.486,0v1.764A19.3,19.3,0,0,1,6.461,27.765H8.225a2.243,2.243,0,0,0,0-4.486H6.46a19.025,19.025,0,0,1,1.482-5.466.748.748,0,0,0-1.369-.6,20.517,20.517,0,0,0-1.616,6.067H2.243a2.243,2.243,0,1,0,0,4.486H4.956A20.689,20.689,0,0,0,23.278,46.087V48.8a2.243,2.243,0,1,0,4.486,0V46.087A20.689,20.689,0,0,0,46.086,27.765H48.8a2.243,2.243,0,1,0,0-4.486ZM26.269,8.225a.748.748,0,0,1-1.5,0V2.243a.748.748,0,1,1,1.5,0ZM1.5,25.521a.748.748,0,0,1,.748-.748H8.225a.748.748,0,0,1,0,1.5H2.243A.748.748,0,0,1,1.5,25.521ZM26.269,48.8a.748.748,0,0,1-1.5,0V42.818a.748.748,0,0,1,1.5,0ZM48.8,26.269H42.818a.748.748,0,0,1,0-1.5H48.8a.748.748,0,0,1,0,1.5Z"/>
    </g>
  </g>
</svg>
