<svg xmlns="http://www.w3.org/2000/svg" width="61.506" height="53.5" viewBox="0 0 61.506 53.5">
  <g id="custom" transform="translate(-698.494 -1096.5)">
    <rect id="Rectangle_146" data-name="Rectangle 146" width="47" height="47" rx="9" transform="translate(698.494 1103)" fill="#fdb137"/>
    <g id="settings" transform="translate(710.354 1090.591)">
      <path id="Path_10826" data-name="Path 10826" d="M49.5,14.978a2.343,2.343,0,0,0-3.966-1.284l-4.048,4.048a.47.47,0,0,1-.452.121l-2.375-.636a.469.469,0,0,1-.331-.331l-.636-2.375a.469.469,0,0,1,.121-.452l2.062-2.062a.727.727,0,0,0-1.028-1.029L36.784,13.04a1.927,1.927,0,0,0-.5,1.857l.636,2.375a1.928,1.928,0,0,0,1.359,1.359l2.375.636a1.928,1.928,0,0,0,1.857-.5l4.048-4.048a.887.887,0,0,1,1.5.494A9.408,9.408,0,0,1,36.678,25.94a2.041,2.041,0,0,0-1.909.546L21.559,39.7a4.031,4.031,0,0,1-5.7-5.7l13.22-13.22a2.039,2.039,0,0,0,.548-1.9A9.486,9.486,0,0,1,32.3,9.951a9.332,9.332,0,0,1,8.044-2.46.892.892,0,0,1,.687,1.2.727.727,0,0,0,1.351.538,2.346,2.346,0,0,0-1.8-3.174A10.849,10.849,0,0,0,28.208,19.195a.592.592,0,0,1-.158.552l-3,3,.04-1.684a2.416,2.416,0,0,0-2.417-2.476H14.745a2.417,2.417,0,0,0-2.417,2.476l.068,2.821a.745.745,0,0,1-.306.62L9.018,26.735a.744.744,0,0,1-.684.1L5.671,25.9a2.416,2.416,0,0,0-3.1,1.534L.119,34.973a2.416,2.416,0,0,0,1.608,3.064l2.7.807a.744.744,0,0,1,.495.483L6.1,42.938a.744.744,0,0,1-.116.682L4.27,45.862a2.416,2.416,0,0,0,.5,3.424l3.409,2.477a.727.727,0,1,0,.855-1.177L5.625,48.11a.963.963,0,0,1-.2-1.364L7.139,44.5a2.2,2.2,0,0,0,.344-2.014l-1.173-3.61a2.2,2.2,0,0,0-1.462-1.427l-2.7-.807A.963.963,0,0,1,1.5,35.423l2.45-7.541a.963.963,0,0,1,1.236-.611l2.663.936a2.2,2.2,0,0,0,2.022-.3l3.071-2.231a2.2,2.2,0,0,0,.905-1.832l-.068-2.821a.963.963,0,0,1,.963-.987h7.929a.963.963,0,0,1,.963.987,30.243,30.243,0,0,0-.045,3.177L20.12,27.677a9.275,9.275,0,1,0,7.758,7.757l6.07-6.07,1.969,6.058a.963.963,0,0,1-.641,1.221l-2.7.807a2.2,2.2,0,0,0-1.462,1.427l-1.173,3.61A2.2,2.2,0,0,0,30.28,44.5l1.713,2.243a.963.963,0,0,1-.2,1.364l-6.415,4.66a.963.963,0,0,1-1.359-.232l-1.6-2.322a2.2,2.2,0,0,0-1.809-.949h-3.8A2.2,2.2,0,0,0,15,50.215l-1.6,2.322a.963.963,0,0,1-1.359.232L11.8,52.6a.727.727,0,1,0-.855,1.177l.236.172a2.416,2.416,0,0,0,3.411-.582l1.6-2.322a.744.744,0,0,1,.612-.321h3.8a.744.744,0,0,1,.612.321l1.6,2.322a2.416,2.416,0,0,0,3.411.582l6.415-4.66a2.417,2.417,0,0,0,.5-3.424l-1.713-2.243a.744.744,0,0,1-.116-.682l1.173-3.61a.744.744,0,0,1,.495-.483l2.7-.807A2.416,2.416,0,0,0,37.3,34.973l-2.2-6.763.7-.7a.593.593,0,0,1,.556-.157A10.863,10.863,0,0,0,49.5,14.978ZM18.709,44.666a7.821,7.821,0,1,1,.063-15.641L14.83,32.966a5.485,5.485,0,0,0,7.758,7.758l3.941-3.941c0,.021,0,.042,0,.063A7.83,7.83,0,0,1,18.709,44.666Z" transform="translate(0)"/>
    </g>
  </g>
</svg>
