<svg xmlns="http://www.w3.org/2000/svg" width="54.151" height="53.043" viewBox="0 0 54.151 53.043">
  <g id="email" transform="translate(-1155.988 -1091.957)">
    <rect id="Rectangle_146" data-name="Rectangle 146" width="47" height="47" rx="9" transform="translate(1155.988 1098)" fill="#fdb137"/>
    <g id="XMLID_2019_" transform="translate(1165.772 1091.957)">
      <g id="XMLID_1056_" transform="translate(0 0)">
        <path id="XMLID_1322_" d="M44.113,14.465,39.688,10.04V.867A.867.867,0,0,0,38.821,0H26.055a.867.867,0,1,0,0,1.733h11.9V19.4l-15.81,15.81L6.412,19.476V1.733H18.256a.867.867,0,1,0,0-1.733H5.546a.867.867,0,0,0-.867.867V10.04L.254,14.465A.867.867,0,0,0,0,15.078V40.034a4.338,4.338,0,0,0,4.333,4.333h35.7a4.338,4.338,0,0,0,4.333-4.333V15.078A.867.867,0,0,0,44.113,14.465ZM42.634,40.034a2.584,2.584,0,0,1-.254,1.12L30.515,29.289,42.634,17.17ZM39.688,12.491l2.587,2.587-2.587,2.587ZM1.987,41.155a2.584,2.584,0,0,1-.254-1.12V17.248l12.08,12.08ZM4.679,17.743,2.053,15.117l2.626-2.626ZM4.333,42.634a2.583,2.583,0,0,1-1.12-.254L15.039,30.554l6.493,6.493a.867.867,0,0,0,1.225,0l6.532-6.532L41.155,42.38a2.584,2.584,0,0,1-1.12.254H4.333Z" transform="translate(0 0)"/>
        <path id="XMLID_1377_" d="M246.547,1.733a.867.867,0,0,0,.867-.867.866.866,0,1,0-.867.867Z" transform="translate(-224.391 0)"/>
        <path id="XMLID_1555_" d="M148.975,69.551a9.413,9.413,0,0,0,2.452,11.981,9.512,9.512,0,0,0,5.543,1.995h.024a.867.867,0,0,0,.023-1.733,7.7,7.7,0,0,1-2.125-15.04,7.7,7.7,0,0,1,9.709,5.1,6.747,6.747,0,0,1-.415,4.491,2.366,2.366,0,0,1-2.18,1.609.9.9,0,0,1-.626-.287,1.361,1.361,0,0,1-.386-.966V69.538a.867.867,0,1,0-1.733,0v.276a3.784,3.784,0,0,0-2.458-.886c-2.189,0-4.452,1.9-4.452,5.072a5.8,5.8,0,0,0,1.249,3.69,4.069,4.069,0,0,0,3.112,1.564,3.827,3.827,0,0,0,2.816-1.282,3.039,3.039,0,0,0,.623.918,2.614,2.614,0,0,0,1.855.8,4.1,4.1,0,0,0,3.79-2.7,8.452,8.452,0,0,0,.476-5.592l-.008-.027a9.423,9.423,0,0,0-17.289-1.816Zm7.736,7.971c-1.449,0-2.628-1.58-2.628-3.521,0-2.09,1.383-3.339,2.719-3.339,1.44,0,2.446,1.362,2.446,3.313s-1.138,3.548-2.537,3.548Z" transform="translate(-134.989 -59.051)"/>
      </g>
    </g>
  </g>
</svg>
