<svg xmlns="http://www.w3.org/2000/svg" width="57.597" height="52.749" viewBox="0 0 57.597 52.749">
  <g id="GIF" transform="translate(-1155.988 -1092.251)">
    <rect id="Rectangle_146" data-name="Rectangle 146" width="47" height="47" rx="9" transform="translate(1155.988 1098)" fill="#fdb137"/>
    <g id="picture" transform="translate(1116.972 903.07)">
      <g id="Group_9251" data-name="Group 9251" transform="translate(45.519 189.181)">
        <g id="Group_9250" data-name="Group 9250" transform="translate(0)">
          <path id="Path_10815" data-name="Path 10815" d="M88.241,200.491l-27.693-11.31-8.412,20.594-.561,1.384,1.394.572.561-1.394,7.841-19.191,22.89,9.345H61.872v30.56l-14.4-5.886,3.339-8.182-.692-.281.692.281.441-1.073-1.384-.572-.441,1.083-3.91,9.565,16.353,6.688v3.369H96.613V211.791h-1.5v22.75H63.376V201.995H95.109v5.284h1.5v-6.788Z" transform="translate(-45.519 -189.181)"/>
          <path id="Path_10816" data-name="Path 10816" d="M536.392,383.208h1.5v1.5h-1.5Z" transform="translate(-486.802 -363.606)"/>
          <path id="Path_10817" data-name="Path 10817" d="M0,0H1.5V1.5H0Z" transform="translate(6.868 23.949) rotate(112.206)"/>
          <path id="Path_10818" data-name="Path 10818" d="M252.25,376.64h25.678V350.952H252.25Zm10.237-1.5,6.788-12.3,1.775,3.579h-3.138v1.5h3.88l3.589,7.229H262.487Zm13.937-22.68v21.386l-7.089-14.258-8.573,15.551h-5.494l6.8-12.332,1.554,3.018,1.334-.692-2.848-5.535-8.352,15.19V352.456Z" transform="translate(-231.365 -334.609)"/>
          <path id="Path_10819" data-name="Path 10819" d="M424.948,382.333a2.888,2.888,0,1,0-2.888-2.888A2.888,2.888,0,0,0,424.948,382.333Zm0-4.271a1.384,1.384,0,1,1-1.384,1.384A1.386,1.386,0,0,1,424.948,378.062Z" transform="translate(-384.02 -357.628)"/>
        </g>
      </g>
    </g>
  </g>
</svg>
