<svg xmlns="http://www.w3.org/2000/svg" width="50.988" height="56" viewBox="0 0 50.988 56">
  <g id="iconChat" transform="translate(-240.012 -2715)">
    <rect id="Rectangle_146" data-name="Rectangle 146" width="47" height="47" rx="9" transform="translate(244 2724)" fill="#fdb137"/>
    <path id="megaphone" d="M41.231,25.41a5.274,5.274,0,0,0-5.2-9.015l-3.293-5.7a3.557,3.557,0,0,0-6.09-.12A52.329,52.329,0,0,1,10.792,26.606a.85.85,0,0,0-.284,1.119c.035.063,5.489,9.51,5.525,9.572a.85.85,0,1,0,1.472-.85L12.39,27.588A54,54,0,0,0,28.081,11.479a1.857,1.857,0,0,1,3.18.063L43.053,31.964a1.858,1.858,0,0,1-1.536,2.786A54.03,54.03,0,0,0,19,40.646c-.03.015-7.982,4.607-8.529,4.923A2.98,2.98,0,0,1,6.4,44.48L2.1,37.024a2.98,2.98,0,0,1,1.089-4.066l5.181-2.991a.85.85,0,1,0-.85-1.472L2.337,31.486A4.681,4.681,0,0,0,.626,37.874l4.3,7.456a4.681,4.681,0,0,0,6.388,1.712l.2-.113,5.314,9.2A2.761,2.761,0,0,0,20.6,57.144l1.864-1.076a2.761,2.761,0,0,0,1.011-3.774L19.712,45.77a.85.85,0,1,0-1.472.85l3.767,6.524a1.063,1.063,0,0,1-.389,1.452l-1.864,1.076a1.063,1.063,0,0,1-1.452-.389l-5.314-9.2,6.8-3.929a52.327,52.327,0,0,1,21.793-5.7,3.557,3.557,0,0,0,2.941-5.334Zm-.243-5.87a3.58,3.58,0,0,1-.624,4.369L36.893,17.9A3.573,3.573,0,0,1,40.989,19.541ZM49.3,15.762l-2.2,1.27a.85.85,0,1,1-.85-1.472l2.2-1.27a.85.85,0,1,1,.85,1.472Zm-9.456-4.844.536-2a.85.85,0,1,1,1.642.44l-.536,2a.85.85,0,1,1-1.642-.44ZM50.959,24.837a.85.85,0,0,1-.82.63,13.944,13.944,0,0,1-2.221-.565.85.85,0,1,1,.44-1.642l2,.536a.85.85,0,0,1,.6,1.041Z" transform="translate(240.012 2706.712)"/>
  </g>
</svg>
