<svg xmlns="http://www.w3.org/2000/svg" width="57.87" height="51" viewBox="0 0 57.87 51">
  <g id="inquired" transform="translate(-476 -1187)">
    <rect id="Rectangle_146" data-name="Rectangle 146" width="47" height="47" rx="9" transform="translate(476 1191)" fill="#fdb137"/>
    <g id="speech-bubble" transform="translate(483 1187)">
      <path id="Path_10832" data-name="Path 10832" d="M246.994,100a.994.994,0,1,0,.994.994A.994.994,0,0,0,246.994,100Zm0,0" transform="translate(-221.559 -90.065)"/>
      <path id="Path_10834" data-name="Path 10834" d="M33.383,0C24.439,0,17.1,6.167,16.529,13.935,8.011,14.362,0,20.5,0,28.813a13.883,13.883,0,0,0,3.875,9.5,6.042,6.042,0,0,1-1.6,5.693.993.993,0,0,0,.7,1.7,10.96,10.96,0,0,0,7.593-3.069,22.641,22.641,0,0,0,6.913,1.082c8.943,0,16.284-6.165,16.853-13.932a22.341,22.341,0,0,0,5.956-1.06,10.96,10.96,0,0,0,7.593,3.069.993.993,0,0,0,.7-1.7,6.042,6.042,0,0,1-1.6-5.693,13.883,13.883,0,0,0,3.875-9.5C50.87,6.271,42.242,0,33.383,0Zm-15.9,41.729a20.085,20.085,0,0,1-6.807-1.172.994.994,0,0,0-1.1.252A8.965,8.965,0,0,1,5.12,43.455a8.035,8.035,0,0,0,.606-5.914.992.992,0,0,0-.243-.42,11.94,11.94,0,0,1-3.5-8.309c0-7,7.1-12.916,15.5-12.916,7.934,0,14.9,5.517,14.9,12.916C32.39,35.935,25.7,41.729,17.486,41.729Zm27.9-18.517a1,1,0,0,0-.243.42,8.035,8.035,0,0,0,.606,5.914A8.962,8.962,0,0,1,41.291,26.9a.994.994,0,0,0-1.1-.252,19.572,19.572,0,0,1-5.853,1.148,14.221,14.221,0,0,0-5.369-9.911h12.96a.994.994,0,1,0,0-1.987H25.916a18.53,18.53,0,0,0-7.394-1.958C19.092,7.266,25.54,1.987,33.383,1.987c8.4,0,15.5,5.915,15.5,12.916A11.94,11.94,0,0,1,45.387,23.212Zm0,0"/>
      <path id="Path_10837" data-name="Path 10837" d="M299.512,100H286.994a.994.994,0,0,0,0,1.987h12.519a.994.994,0,1,0,0-1.987Zm0,0" transform="translate(-257.585 -90.065)"/>
    </g>
  </g>
</svg>
