<svg xmlns="http://www.w3.org/2000/svg" width="160.023" height="189" viewBox="0 0 160.023 189">
  <g id="nin1" transform="translate(-245 -7296)">
    <circle id="Ellipse_180" data-name="Ellipse 180" cx="73" cy="73" r="73" transform="translate(245 7339)" fill="#f9f5f1"/>
    <g id="Group_9230" data-name="Group 9230" transform="translate(-98.197 -3)">
      <path id="Path_10731" data-name="Path 10731" d="M30.242,58.38,16.5,68.951,30.242,80.515" transform="translate(393.942 7302.333)" fill="none" stroke="#000" stroke-miterlimit="10" stroke-width="1"/>
      <path id="Path_10732" data-name="Path 10732" d="M35,64.964S36.057,48.051,45.571,44.88c0,0,9.186,2.114,6.173,14.27C51.744,59.15,42.4,72.364,35,64.964Z" transform="translate(394.997 7301.563)" fill="none" stroke="#000" stroke-miterlimit="10" stroke-width="1"/>
      <path id="Path_10733" data-name="Path 10733" d="M23.575,40.547s-14.8,8.858-9.514,21.543,14.8-10.771,14.8-10.771S33.089,35.907,23.575,40.547Z" transform="translate(393.737 7301.266)" fill="none" stroke="#000" stroke-miterlimit="10" stroke-width="1"/>
      <path id="Path_10734" data-name="Path 10734" d="M72.08,69.232s15.771-19.027,17.885,5.285" transform="translate(397.113 7302.548)" fill="none" stroke="#000" stroke-miterlimit="10" stroke-width="1"/>
      <path id="Path_10735" data-name="Path 10735" d="M19,85.88l12.685,23.255L38.63,85.88" transform="translate(394.084 7303.902)" fill="none" stroke="#000" stroke-miterlimit="10" stroke-width="1"/>
      <line id="Line_108" data-name="Line 108" x1="16.475" y2="9.885" transform="translate(416.503 7384.787)" fill="none" stroke="#000" stroke-miterlimit="10" stroke-width="1"/>
      <path id="Path_10736" data-name="Path 10736" d="M29.651,29.08s-5.37,4.894-8.456,0c0,0,.909-3.488,4.228-3.657,0,0-9.376,8.277-10.433-7.579,0,0,1.057-6.342,10.571-5.285,0,0-3.171-10.571,8.456-11.628,0,0,12.685-2.114,13.742,7.4,0,0,17.97-20.084,22.2,2.114,0,0,20.084-11.628,12.685,10.571,0,0,21.141-7.008,12.156,10.243,0,0,19.556,4.556,3.7,17.241,0,0,19.027,0,2.114,14.8,0,0,17.241,7.273,3.33,20.549,0,0-13.9,29.133-13.9,3.763a26.818,26.818,0,0,0-1.956-25.9s-6.49,3.7-7.547-1.586c0,0-3,2.114-5.2-.539,0,0-1.142-10.032-6.427-5.8,0,0,10.867-9.947-4.609-11.839A14.545,14.545,0,0,1,53.5,31.828S45.655,47.441,35.085,33.7C35.085,33.7,25.275,45.6,29.651,29.08Z" transform="translate(393.855 7299.002)"/>
      <path id="Path_10737" data-name="Path 10737" d="M12.92,94.46s6.427,18.414,21.226,24.756c0,0,20.084,13.742,17.97,57.081" transform="translate(393.737 7304.393)" fill="none" stroke="#000" stroke-miterlimit="10" stroke-width="1"/>
      <path id="Path_10738" data-name="Path 10738" d="M79.048,95.884S60.317,91.17,59.64,153.251" transform="translate(396.403 7304.468)" fill="none" stroke="#000" stroke-miterlimit="10" stroke-width="1"/>
      <path id="Path_10739" data-name="Path 10739" d="M51.42,169.172,76.345,126.89s27.484,21.141,19.027,49.682" transform="translate(395.934 7306.243)"/>
      <path id="Path_10740" data-name="Path 10740" d="M32.989,99.336a31.712,31.712,0,0,1,4.228-10.571c1.057-1.765-1.586-3.266-2.738-1.6a37,37,0,0,0-5.951,14.556h3.055l-.455-1.11a1.617,1.617,0,0,0-1.734-1.142,1.586,1.586,0,0,0-1.374,1.564,14.45,14.45,0,0,0,.37,2.516,1.6,1.6,0,0,0,3.118-.423v-1.057l-3.171.423a14.546,14.546,0,0,1,.645,2.2c.3,1.469,2.822,1.564,3.055,0,.433-2.949,2.357-5.4,2.96-8.319l-3.108-.412a15.1,15.1,0,0,1-1.543,4.641,15.3,15.3,0,0,0-1.459,5.211l3.171-.412c-.211-1.321-.381-2.643-.5-3.975,0-.613-.1-1.237-.127-1.86a6.1,6.1,0,0,1,0-1.808,4.228,4.228,0,0,1,.793-1.321l1.205-1.691,2.41-3.393a1.586,1.586,0,1,0-2.738-1.6l-2.611,3.668c-.835,1.173-1.945,2.378-2.2,3.837a16.913,16.913,0,0,0,.1,4.387c.148,1.554.349,3.108.6,4.64a1.564,1.564,0,0,0,1.734,1.142,1.607,1.607,0,0,0,1.374-1.564,14.07,14.07,0,0,1,1.48-4.651,16.363,16.363,0,0,0,1.522-5.2c.148-1.776-2.759-2.178-3.171-.423-.6,2.907-2.526,5.349-2.96,8.319h3.055a15.982,15.982,0,0,0-.634-2.209c-.6-1.586-3.171-1.469-3.118.423v1.057l3.118-.423a9.007,9.007,0,0,1-.264-1.67l-3.118.423.455,1.057a1.649,1.649,0,0,0,1.522,1.163,1.586,1.586,0,0,0,1.533-1.163,34.756,34.756,0,0,1,5.634-13.805l-2.738-1.6a34.154,34.154,0,0,0-4.493,11.289,1.628,1.628,0,0,0,1.11,1.956,1.6,1.6,0,0,0,1.945-1.057Z" transform="translate(394.598 7303.935)"/>
      <path id="Path_10741" data-name="Path 10741" d="M38.476,63.228a33.581,33.581,0,0,1,3.287-4.154l-2.706-1.12a2.78,2.78,0,0,0,1.057,2.674,2.2,2.2,0,0,0,1.67.243,2.854,2.854,0,0,0,.751-.349l.233-.159c.254-.137.148-.116-.307.063l-.793-2.96a15.549,15.549,0,0,0-4.355,4.7,1.6,1.6,0,0,0,.412,2.051,1.628,1.628,0,0,0,2.114-.127l1.226-.994a1.6,1.6,0,0,0-1.12-2.706,2.717,2.717,0,0,0-2.569,2.114,1.617,1.617,0,0,0,2.336,1.8,20.4,20.4,0,0,0,4.725-2.875l-2.495-1.924q-1.416,2.368-2.622,4.831a1.6,1.6,0,0,0,.951,2.326c1.934.412,3.171-.856,4.313-2.262.465-.592.962-1.173,1.48-1.723.254-.285.518-.55.782-.825l.444-.433.222-.211c-.275.3-.655.317-1.142.074l-.571-.571.053.1.951-2.326a30.654,30.654,0,0,1-3.361.983L45.231,61.8a3.309,3.309,0,0,1,2.727-1.4l-.8-2.96a52.5,52.5,0,0,1-5.2,2.537,16.331,16.331,0,0,1-2.769.994c-1.057.222-2.008-.243-3.034.254a2.262,2.262,0,0,0-1.142,2.917A2.7,2.7,0,0,0,37.6,65.6h2.991a6.142,6.142,0,0,0,3-.867,14.715,14.715,0,0,1,2.188-.814,5.729,5.729,0,0,0,2.59-1.6,1.586,1.586,0,0,0-2.241-2.241,1.628,1.628,0,0,1-.751.592l-.222.106c.127-.053.106-.053-.074,0l-.645.211a13.742,13.742,0,0,0-2.463.983,3.838,3.838,0,0,1-.825.4,8.266,8.266,0,0,1-1.448,0H38.117a5.762,5.762,0,0,1-.74,0h0c.3.074.391.317.307.719.307.391.285.7-.053.93-.37.074-.412.106-.106.085a5.286,5.286,0,0,0,.825.085,6.162,6.162,0,0,0,1.7-.159,19.713,19.713,0,0,0,2.865-1.057,57.508,57.508,0,0,0,5.835-2.77,1.6,1.6,0,0,0-.8-2.949A6.511,6.511,0,0,0,42.5,60.2c-.814,1.216.529,2.622,1.786,2.326a31.5,31.5,0,0,0,3.4-.983,1.607,1.607,0,0,0,.941-2.326,2.008,2.008,0,0,0-2.9-.571,10.761,10.761,0,0,0-2.114,2.019c-.581.645-1.194,1.427-1.681,2.019a5.634,5.634,0,0,1-.761.825c.159-.127-.18.106-.222.127.137,0,.116-.063-.063,0a.328.328,0,0,1,.222,0l.951,2.326q1.205-2.474,2.622-4.82a1.586,1.586,0,0,0-.4-2.051,1.617,1.617,0,0,0-2.114.127A17.97,17.97,0,0,1,38.085,61.6l2.357,1.776h0c-.264.085.233.148-.455.211l-1.12-2.706-1.226.994L40.125,63.8A11.839,11.839,0,0,1,43.3,60.226a1.586,1.586,0,0,0-.8-2.949,2.389,2.389,0,0,0-1.11.264c-.085,0-.529.254-.539.338l.423-.085.9.518c.063.053.116.243,0,0,.085.18,0,.159,0,0a1.649,1.649,0,0,1,0-.328,1.607,1.607,0,0,0-2.717-1.131,39.577,39.577,0,0,0-3.774,4.81,1.586,1.586,0,0,0,2.738,1.6Z" transform="translate(394.988 7302.221)"/>
      <path id="Path_10742" data-name="Path 10742" d="M24.639,52.236a19.291,19.291,0,0,0-7.114,3.3l2.368,1.818a9.514,9.514,0,0,1,.994-2.114,9.111,9.111,0,0,1,1.459-1.776A1.586,1.586,0,0,0,20.41,51.01c-.793.56-1.607,1.11-2.4,1.681a3.467,3.467,0,0,0-1.057,1.057,2.463,2.463,0,0,0-.285,1.131v.4l.1-.338c.116-.127.106-.127,0,0s-.148.127,0,0c-.18.159-.381.285-.56.433a3.932,3.932,0,0,0-.814,1.057,4.228,4.228,0,0,0-.412,3.034,2.812,2.812,0,0,0,2.061,2.114,5.687,5.687,0,0,0,2.875-.317,11.184,11.184,0,0,0,4.651-2.854l-2.484-1.9a16.828,16.828,0,0,1-1.554,2.96,4.323,4.323,0,0,1-1.67,1.364l-.317.1h-.053c.285,0-.254-.127.116.074.169.116.2.127.106,0h0c0,.106-.063-.127-.085-.159s-.148-.254-.233-.381-.264-.391-.4-.581a12.568,12.568,0,0,0-2.357-2.495,1.617,1.617,0,0,0-2.241,0,2.114,2.114,0,0,0-.264,2.579,4.7,4.7,0,0,0,1.8,1.48,15.2,15.2,0,0,0,2.114.983,4.535,4.535,0,0,0,2.685.349c1.48-.4,2.495-1.924,3.467-3l3.3-3.6a1.628,1.628,0,0,0,0-2.252,1.607,1.607,0,0,0-2.241,0c-1.607,1.776-3.171,3.552-4.831,5.285a4.831,4.831,0,0,1-.465.465c.127-.106,0,0-.074,0a.233.233,0,0,1,.148,0,8.878,8.878,0,0,1-1.321-.4,10.452,10.452,0,0,1-1.3-.634c-.233-.137-.455-.264-.666-.412s0,0,.053.063a.835.835,0,0,1,.137.37l-.222.8-.116.137H13.37a9.725,9.725,0,0,1,2.357,2.59,3.573,3.573,0,0,0,1.512,1.691,3.235,3.235,0,0,0,2.252.106c2.791-.772,4.228-3.414,5.285-5.877A1.6,1.6,0,0,0,22.25,56.19a7.812,7.812,0,0,1-3.6,2.22l-.518.116H17.8a.349.349,0,0,1,.2.169c.148.169.159.159,0,0v.1a1.755,1.755,0,0,1-.063-.222h0V58.41c0-.159-.063.169,0-.106,0,0,.18-.423,0-.19,0,0,.233-.349.127-.222s.169-.148.19-.169l.074-.063.285-.222.285-.243a2.727,2.727,0,0,0,.687-1.057,7.282,7.282,0,0,0,.1-1.163c.264,0-.211.55-.233.507l.465-.328L21.848,53.8l-1.924-2.495a12.938,12.938,0,0,0-3.266,5.285,1.6,1.6,0,0,0,2.326,1.8,16.67,16.67,0,0,1,6.342-2.97,1.589,1.589,0,1,0-.835-3.065Z" transform="translate(393.731 7301.902)"/>
      <path id="Path_10743" data-name="Path 10743" d="M81.212,69.155l.1,1.469a1.6,1.6,0,0,0,.972,1.448,1.554,1.554,0,0,0,1.734-.328l2.262-2.8-2.653-.7a2.433,2.433,0,0,1,.106.37v.116a4.738,4.738,0,0,1,0,.772H86.9v-.666H83.728a20.6,20.6,0,0,1,.137,3.869,1.586,1.586,0,0,0,1.586,1.586,1.628,1.628,0,0,0,1.586-1.586l.127-2.495H83.992l.264,2.548a1.586,1.586,0,0,0,3.108.423l.529-1.332H84.827a2.679,2.679,0,0,0,.074.4c.021.137,0-.211,0,0s.053.539.053.8a9.249,9.249,0,0,1-.074,1.533l2.949-.8a7.96,7.96,0,0,0-3.985-3.837,1.638,1.638,0,0,0-1.406-.085,1.533,1.533,0,0,0-.92,1.057,13.012,13.012,0,0,0-.307,3.943,1.638,1.638,0,0,0,1.163,1.522,1.617,1.617,0,0,0,1.8-.729L85,73.943a4.144,4.144,0,0,0,.338-.687c-.106.486-1.057.571-1.385.37a1.057,1.057,0,0,1-.444-1.163c-.243,1.057.751,2.41,1.945,1.956l.729-.275-1.8-.729.307.5a1.607,1.607,0,0,0,2.9-.37l.8-3.668-3.171-.423v5.19a1.586,1.586,0,1,0,3.171,0V70.815H85.218v2.008h3.171V70.846a1.586,1.586,0,0,0-3.108-.423,7.569,7.569,0,0,0-.349,2.706l2.706-1.12-.307-.349a1.575,1.575,0,0,0-1.734-.328,1.6,1.6,0,0,0-.972,1.448,14.926,14.926,0,0,1-.169,1.808v.159l-.063.412a5.4,5.4,0,0,1-.18.973,1.59,1.59,0,1,0,3.065.846,31.215,31.215,0,0,0,.539-4.228l-2.706,1.12.3.349a1.6,1.6,0,0,0,2.706-1.12,6.119,6.119,0,0,1,0-1.057v-.19a5.413,5.413,0,0,1,.275-.581l-3.171-.423v1.977a1.586,1.586,0,0,0,3.171,0V70.815a1.586,1.586,0,0,0-3.171,0v3.827h3.171v-5.19a1.6,1.6,0,0,0-3.171-.423l-.761,3.689,2.981-.391-.3-.5a1.617,1.617,0,0,0-1.8-.729l-.719.275,1.945,2.008a2.114,2.114,0,0,0-.613-2.114,2.188,2.188,0,0,0-2.114-.518,2.8,2.8,0,0,0-1.586,1.575l-.814,1.712,2.949.8a12.929,12.929,0,0,1,0-1.691v-.56h0c.053-.3.106-.581.169-.877l-2.326.951a6.988,6.988,0,0,1,1.057.529l.233.148.106.085c-.148-.116.074.063.1.085l.254.222c.127.127.254.254.37.391l.18.2c-.106-.106-.1-.127,0,0a6.84,6.84,0,0,1,.613,1.057,1.607,1.607,0,0,0,1.8.729A1.681,1.681,0,0,0,88.1,74.588a11.627,11.627,0,0,0-.169-3.626A1.607,1.607,0,0,0,86.4,69.789a1.7,1.7,0,0,0-1.533,1.173l-.56,1.364,3.171.423-.317-2.537a1.586,1.586,0,1,0-3.171,0l-.148,2.505h3.171a20.6,20.6,0,0,0-.137-3.869,1.586,1.586,0,0,0-3.171,0v.666A1.607,1.607,0,0,0,85.292,71.1a1.628,1.628,0,0,0,1.586-1.586,4.746,4.746,0,0,0-.233-2.114,1.617,1.617,0,0,0-1.057-1.057,1.575,1.575,0,0,0-1.543.4l-2.209,2.843,2.706,1.12-.159-1.554A1.617,1.617,0,0,0,82.8,67.569a1.6,1.6,0,0,0-1.586,1.586Z" transform="translate(397.632 7302.784)"/>
      <path id="Path_10744" data-name="Path 10744" d="M0,173.789s32.314-40.168,44.164-34.883c0,0,2.9,28.541,5.793,31.712" transform="translate(393 7306.901)"/>
    </g>
  </g>
</svg>
