<svg xmlns="http://www.w3.org/2000/svg" width="179.917" height="194.534" viewBox="0 0 179.917 194.534">
  <g id="nin2" transform="translate(-493.929 -7294)">
    <circle id="Ellipse_181" data-name="Ellipse 181" cx="73" cy="73" r="73" transform="translate(493.929 7339)" fill="#f9f5f1"/>
    <g id="Group_9233" data-name="Group 9233" transform="translate(109.828 -218.002)">
      <path id="Path_10759" data-name="Path 10759" d="M39.5,287.547l9.955-12.167-1.372,18.936Z" transform="translate(394.75 7305.618)" fill="none" stroke="#000" stroke-miterlimit="10" stroke-width="1"/>
      <line id="Line_109" data-name="Line 109" x1="5.221" y1="2.931" transform="translate(442.855 7599.635)" fill="none" stroke="#000" stroke-miterlimit="10" stroke-width="1"/>
      <path id="Path_10760" data-name="Path 10760" d="M59,284.242s1.106-16.591,13.273-24.333c0,0,12.388-3.318,5.088,12.167C77.361,272.075,68.955,290.878,59,284.242Z" transform="translate(396.818 7303.945)" fill="none" stroke="#000" stroke-miterlimit="10" stroke-width="1"/>
      <path id="Path_10761" data-name="Path 10761" d="M66.529,271.426s-4.734,1.648-1.416,7.178c0,0,5.176-1.471,3.694-5.154S66.529,271.426,66.529,271.426Z" transform="translate(397.341 7305.159)"/>
      <path id="Path_10762" data-name="Path 10762" d="M43.376,263.88s-4.424-.3-3.871,4.833,3.871,1.228,3.871,1.228S46.694,264.986,43.376,263.88Z" transform="translate(394.745 7304.398)"/>
      <path id="Path_10763" data-name="Path 10763" d="M35.031,276.347s17.7,3.318,21.015-22.121c0,0-6.869-9.534-13.383,2.422C42.663,256.648,32.819,268.6,35.031,276.347Z" transform="translate(394.242 7302.992)" fill="none" stroke="#000" stroke-miterlimit="10" stroke-width="1"/>
      <path id="Path_10764" data-name="Path 10764" d="M41.9,307.436l26.656-9.556L58.6,323.319Z" transform="translate(395.004 7308.004)" fill="none" stroke="#000" stroke-miterlimit="10" stroke-width="1"/>
      <path id="Path_10765" data-name="Path 10765" d="M27.229,262.64s35.947-50.326,48.113-11.614c0,0,11.614-32.352-12.72-38.026,0,0-34.288,7.61-37.606,45.216C25.017,258.216,23.911,264.852,27.229,262.64Z" transform="translate(393.195 7299.002)"/>
      <path id="Path_10766" data-name="Path 10766" d="M70.638,249.706s-2.854-5.906-10.6,0c0,0-3.672-9,10.331-12.056C70.372,237.65,79.033,238.269,70.638,249.706Z" transform="translate(396.882 7301.617)"/>
      <path id="Path_10767" data-name="Path 10767" d="M128.656,315.547S104.7,335.456,87.367,304.486c0,0,8.45-49.408-17.7-56.774,0,0,17.586-30.063,38.292,4.5C107.951,252.214,115.383,300.062,128.656,315.547Z" transform="translate(397.95 7301.398)"/>
      <path id="Path_10768" data-name="Path 10768" d="M123,307.589s38.3-17.7,37.4,1.659C160.4,309.248,144.015,331.922,123,307.589Z" transform="translate(403.606 7308.249)"/>
      <path id="Path_10769" data-name="Path 10769" d="M122.13,308.477l6.493-17.6,15.385,6.017Z" transform="translate(403.513 7307.262)" fill="none" stroke="#000" stroke-miterlimit="10" stroke-width="1"/>
      <path id="Path_10770" data-name="Path 10770" d="M109,315.622l15.485-7.742,6.636,15.485Z" transform="translate(402.121 7309.064)" fill="none" stroke="#000" stroke-miterlimit="10" stroke-width="1"/>
      <path id="Path_10771" data-name="Path 10771" d="M31.6,298.84s-7.223,28.216,22.641,36.245c0,0,12.167,9.147,13.273,41.223" transform="translate(393.831 7308.106)" fill="none" stroke="#000" stroke-miterlimit="10" stroke-width="1"/>
      <path id="Path_10772" data-name="Path 10772" d="M86.6,303.88s-22.121,17.7-15.485,68.576" transform="translate(397.972 7308.64)" fill="none" stroke="#000" stroke-miterlimit="10" stroke-width="1"/>
      <path id="Path_10773" data-name="Path 10773" d="M23,393.512l37.606-34.288s6.636,36.5,26.545-12.167l42.03-1.847" transform="translate(393 7313.024)"/>
      <path id="Path_10774" data-name="Path 10774" d="M58.484,316.245a6.559,6.559,0,0,1,2.643-3.02l-2.466-1.858a33.059,33.059,0,0,1-2.721,6.526l3.031,1.283a4.867,4.867,0,0,0-1.77-4.7,9.844,9.844,0,0,0-4.767-1.792,1.67,1.67,0,0,0-1.261,3.031,19.027,19.027,0,0,1,3.926,3.672c1.183,1.438,3.694-.476,2.61-2.013a27.752,27.752,0,0,0-5.829-6.006l-.841,3.1c4.524-.332,9.313-.863,12.808-4.07l-2.832-1.172a4.27,4.27,0,0,1,0,.841c0-.177,0-.066,0,0a3.194,3.194,0,0,1-.111.387l-.055.133c0,.1-.088.2-.144.3a6.416,6.416,0,0,1-.4.652,12.77,12.77,0,0,1-.9,1.106c-.387.431-.763.863-1.106,1.305a11.061,11.061,0,0,0-2.809,7.632,1.659,1.659,0,1,0,3.318,0,7.057,7.057,0,0,1,.608-3.373,10.286,10.286,0,0,1,1.947-2.743c1.548-1.77,3.263-3.783,3.02-6.316a1.692,1.692,0,0,0-2.9-1.1,10.452,10.452,0,0,1-4.789,2.323,33.458,33.458,0,0,1-5.7.763,1.7,1.7,0,0,0-1.593,1.217,1.737,1.737,0,0,0,.763,1.869,22.452,22.452,0,0,1,4.612,4.822l2.6-2.013a22.056,22.056,0,0,0-4.6-4.181l-1.272,3.031a9.635,9.635,0,0,1,3.163.863,2.323,2.323,0,0,1,.785.708,1.272,1.272,0,0,1,.243.531c.077.265,0-.177,0,.1v.2a1.681,1.681,0,0,0,1,1.936,1.659,1.659,0,0,0,2.068-.675,37.517,37.517,0,0,0,3.053-7.322,1.681,1.681,0,0,0-2.433-1.88,9.954,9.954,0,0,0-4.137,5.01,1.659,1.659,0,0,0,1.161,2.035,1.692,1.692,0,0,0,2.035-1.106Z" transform="translate(395.796 7309.029)"/>
    </g>
  </g>
</svg>
