<svg xmlns="http://www.w3.org/2000/svg" width="158.41" height="191.148" viewBox="0 0 158.41 191.148">
  <g id="nin3" transform="translate(-742.857 -7296)">
    <circle id="Ellipse_182" data-name="Ellipse 182" cx="73" cy="73" r="73" transform="translate(742.857 7339)" fill="#f9f5f1"/>
    <g id="Group_9231" data-name="Group 9231" transform="translate(143.802 -7.271)">
      <path id="Path_10717" data-name="Path 10717" d="M246.692,76s-15.267,31.238,17.754,41.144c0,0,14.815,8.255,15.41,52.283" transform="translate(396.139 7306.226)" fill="none" stroke="#000" stroke-miterlimit="10" stroke-width="1"/>
      <path id="Path_10718" data-name="Path 10718" d="M306.714,99.88S280.3,129.6,290.2,162.62" transform="translate(400.652 7308.63)" fill="none" stroke="#000" stroke-miterlimit="10" stroke-width="1"/>
      <path id="Path_10719" data-name="Path 10719" d="M257,89.283s0,22.014,29.719-4.4" transform="translate(397.532 7307.12)" fill="none" stroke="#000" stroke-miterlimit="10" stroke-width="1"/>
      <path id="Path_10720" data-name="Path 10720" d="M282,80.88s4.4,13.319,6.6,15.465" transform="translate(400.049 7306.717)" fill="none" stroke="#000" stroke-miterlimit="10" stroke-width="1"/>
      <path id="Path_10721" data-name="Path 10721" d="M264.76,90.51s-34.848-36.786,14.111-26.659" transform="translate(397.102 7304.824)" fill="none" stroke="#000" stroke-miterlimit="10" stroke-width="1"/>
      <path id="Path_10722" data-name="Path 10722" d="M278,72.2s0-24.215,15.41-25.316c0,0,22.014,5.5-11.007,25.316Z" transform="translate(399.646 7303.293)" fill="none" stroke="#000" stroke-miterlimit="10" stroke-width="1"/>
      <path id="Path_10723" data-name="Path 10723" d="M277.679,38.49s-18.833,6.384-11.337,25.977C266.341,64.467,287.057,54.571,277.679,38.49Z" transform="translate(398.295 7302.448)" fill="none" stroke="#000" stroke-miterlimit="10" stroke-width="1"/>
      <path id="Path_10724" data-name="Path 10724" d="M264.886,35.277s-7.044-16.2,0-19.967c0,0,7.441-8.806,15.5,3.049,0,0,14.727-31.7,21.849,0,0,0,21.431-20.022,14.826,6.4,0,0,27.793-15.267,12.251,10.523,0,0,26.274-8.321,9.763,13.693,0,0,19.7,1.1,5.448,16.511,0,0,20.99,2.422,3.919,16.61,0,0,25.856-3.434-1.662,18.58,0,0,17.611,13.208-13.208,13.208,0,0-5.5,6.6-14.309-1.1s18.58-16.511,18.646-24.215c0,0,2.267-16.511-1.035-15.41,0,0-9.906,1.1-9.906-3.3,0,0,10.237-6.6,5.669-6.054a31.326,31.326,0,0,1-13.374-4.92s5.614-3.5-1.046-3.952c0,0-2.256-7.056-3.357-7.056s-6.6-3.3-6.6-3.3c-2.2,0-5.437.815-6.021-1.244s-14.893.914-18.195-2.774C284.039,40.549,286.46,34.793,264.886,35.277Z" transform="translate(398.011 7299.002)"/>
      <path id="Path_10725" data-name="Path 10725" d="M316.42,62.09l-4.2,4.172s1.1,0,0,4.4-1.1.264,0,6.736,2.752,9.7-.826,8.63.275-5.4,0,4.48-1.563,12.108,1.288,13.208" transform="translate(402.855 7304.825)" fill="none" stroke="#000" stroke-miterlimit="10" stroke-width="1"/>
      <path id="Path_10726" data-name="Path 10726" d="M315,67.944s20.781-5.5,17.545,14.309" transform="translate(403.373 7305.344)" fill="none" stroke="#000" stroke-miterlimit="10" stroke-width="1"/>
      <path id="Path_10727" data-name="Path 10727" d="M318.34,76.2s5.129,11.976,6.23,7.573a42.926,42.926,0,0,0,.98-9.708S320.916,74.126,318.34,76.2Z" transform="translate(403.709 7306.03)"/>
      <path id="Path_10728" data-name="Path 10728" d="M283.59,57.419s-2.2,4.854,0,4.623,4.062,0,4.238-2.3S285.791,56.318,283.59,57.419Z" transform="translate(400.111 7304.312)"/>
      <path id="Path_10729" data-name="Path 10729" d="M271.866,45.429a6.021,6.021,0,0,0-2.345,6.6c1.1,4.4,5.5,0,5.5-2.2S273.11,44.361,271.866,45.429Z" transform="translate(398.769 7303.126)"/>
      <path id="Path_10730" data-name="Path 10730" d="M212,181.543s58.007-32.152,57.9-39.493c0,0,1.288,42.564,45.723,0L358,155.071" transform="translate(393 7312.877)"/>
    </g>
  </g>
</svg>
