<svg xmlns="http://www.w3.org/2000/svg" width="204.848" height="189" viewBox="0 0 204.848 189">
  <g id="nin4" transform="translate(-992 -7296)">
    <circle id="Ellipse_183" data-name="Ellipse 183" cx="73" cy="73" r="73" transform="translate(992 7339)" fill="#f9f5f1"/>
    <g id="Group_9232" data-name="Group 9232" transform="translate(412.973 -261.363)">
      <path id="Path_10745" data-name="Path 10745" d="M200.94,432.937l46.533-34.357s5.659,40.516,80.607,1.412c0,0-2.259,20.638,31.5,21.724" transform="translate(393 7311.089)"/>
      <path id="Path_10746" data-name="Path 10746" d="M231.114,347.32s-3.5,43.372,46.533,60.545" transform="translate(395.597 7306.671)" fill="none" stroke="#000" stroke-miterlimit="10" stroke-width="1"/>
      <path id="Path_10747" data-name="Path 10747" d="M317.774,352.26s-61.306,55.016-37.333,67.486" transform="translate(399.374 7307.097)" fill="none" stroke="#000" stroke-miterlimit="10" stroke-width="1"/>
      <path id="Path_10748" data-name="Path 10748" d="M266.05,331.8s-16.891-13.9-22.18,17.129c0,0,10.569,5.844,24.907-4.345" transform="translate(396.701 7305.064)" fill="none" stroke="#000" stroke-miterlimit="10" stroke-width="1"/>
      <path id="Path_10749" data-name="Path 10749" d="M253.548,300.874s-19.009,17.673-11.405,24.19c0,0,12.709,1.586,19.932-24.19,0,0-7.984-9.483-15.587,3.552" transform="translate(396.397 7302.379)" fill="none" stroke="#000" stroke-miterlimit="10" stroke-width="1"/>
      <path id="Path_10750" data-name="Path 10750" d="M285.987,312.894S270.66,325.2,274.039,333.174c0,0,8.744,11.22,20.692-13.762,0,0-1.086-13.969-21.17-1.553" transform="translate(399.26 7303.688)" fill="none" stroke="#000" stroke-miterlimit="10" stroke-width="1"/>
      <path id="Path_10751" data-name="Path 10751" d="M255.34,316.794s17.792-4.345,21.2,7.125" transform="translate(397.69 7303.969)" fill="none" stroke="#000" stroke-miterlimit="10" stroke-width="1"/>
      <path id="Path_10752" data-name="Path 10752" d="M286,329.89s39.972,9.526,43.318,9.646" transform="translate(400.333 7305.168)" fill="none" stroke="#000" stroke-miterlimit="10" stroke-width="1"/>
      <path id="Path_10753" data-name="Path 10753" d="M319.83,343.748s21.637-18.085,16.347,9.776" transform="translate(403.249 7305.865)" fill="none" stroke="#000" stroke-miterlimit="10" stroke-width="1"/>
      <path id="Path_10754" data-name="Path 10754" d="M327.74,341.991s5.9-7.017,5.811,3.6" transform="translate(403.931 7306.015)" fill="none" stroke="#000" stroke-miterlimit="10" stroke-width="1"/>
      <path id="Path_10755" data-name="Path 10755" d="M235.983,294.77s-2.466,10.862-8.983,9.776c0,0,0-21.724,6.517-26.069,0,0,14.827-19.552,23.7-19.552,0,0,3.454,9.776,7.8,8.69,0,0,22.81-11.948,29.328-8.69,0,0,7.6,31.5,20.638,14.121,0,0,14.121-4.345,16.293,17.379,0,0,23.8-12.926,26.069.6,0,0,0,34.161,19.552,21.127,0,0,18.466,3.259,2.172,26.069,0,0,23.375-7.669-2.976,18.466,0,0-17.379,26.178-31.076-6.984,0,0,16.478-16.206-5.692-14.914,0,0,15.674-18.042-4.877-13.806,0,0,7.69-20.747-10.775-13.143,0,0,1.955-19.193-15.859-2,0,0,1.086-22.148-18.118-10.623,0,0-4.921-12.111-21.311-5.714,0,0,4.236-12.318-13.686-3.508C254.7,285.96,251.483,264.356,235.983,294.77Z" transform="translate(395.247 7299.002)"/>
      <path id="Path_10756" data-name="Path 10756" d="M240.689,355.816a17.379,17.379,0,0,1,.7,5.594,1.64,1.64,0,0,0,1.629,1.629,4.041,4.041,0,0,0,3.53-2.238,7.745,7.745,0,0,0,.293-4.91l-2.976,1.26a3.324,3.324,0,0,0,2.672,1.608,4.487,4.487,0,0,0,1.618-.434c.239-.087.478-.185.717-.25a2.312,2.312,0,0,1,.489-.141c.315,0,.25-.217-.185-.608-.576,1.857,1.966,2.7,2.976,1.26-.163.239-.25.25-.413,0l.967-2.39a3.487,3.487,0,0,1-3.259-.174c-1.162-.663-2.9.456-2.4,1.847a3.943,3.943,0,0,0,2.965,2.563c1.608.348,3.117-.445,4.692-.228a1.7,1.7,0,0,0,2.009-1.141l.435-1.6-2.39.978,1.434.891a1.651,1.651,0,0,0,2.39-.978c0,.087.228.054.4.272a1.64,1.64,0,0,0,2.716-.717,13.284,13.284,0,0,0,.282-5.431l-3.139.869a14.512,14.512,0,0,0,3.65,5.9,1.651,1.651,0,0,0,2.726-.717l1.293-3.563c.728-1.966-2.422-2.813-3.139-.858l-1.3,3.552,2.726-.717a11.155,11.155,0,0,1-2.813-4.464,1.629,1.629,0,0,0-3.139.869,9.21,9.21,0,0,1-.282,3.693l2.726-.717c-1.684-2.172-4.942-1.086-5.844,1.162l2.39-.967-1.434-.891a1.64,1.64,0,0,0-2.39.967l-.445,1.6,2.009-1.086a12.772,12.772,0,0,0-3.639.2c-.424.054-1.6.141-1.738-.25l-2.4,1.836a6.6,6.6,0,0,0,5.757.5,1.651,1.651,0,0,0,.978-2.39,3.107,3.107,0,0,0-5.214,0l2.976,1.249a2.726,2.726,0,0,0-1.847-3.367,3.975,3.975,0,0,0-2.281,0c-.369.109-.717.25-1.086.38s-.565.065-.434.25a1.64,1.64,0,0,0-2.976,1.26c.109.7.554,3-.684,3.02l1.629,1.629a20.324,20.324,0,0,0-.815-6.463c-.6-2.01-3.737-1.151-3.139.869Z" transform="translate(396.417 7307.016)"/>
      <path id="Path_10757" data-name="Path 10757" d="M279.957,325.07a2.177,2.177,0,1,0,4.171-.033,1.651,1.651,0,0,0-1.564-1.195,2.846,2.846,0,0,0-2.248,1.293,2.694,2.694,0,0,0-.348,2.292,1.64,1.64,0,0,0,2.976.391,2.748,2.748,0,0,0,0-2.683,3.258,3.258,0,0,0-1.8-1.553,2.618,2.618,0,0,0-2.629.521,2.292,2.292,0,0,0-.782,1.651,1.966,1.966,0,0,0,1.358,1.933,2.053,2.053,0,0,0,1.977-.51,1.934,1.934,0,0,0,.565-1.293,1.793,1.793,0,0,0-.532-1.3,1.651,1.651,0,0,0-2.792,1.151v1.477a1.922,1.922,0,0,0,.228.912,1.814,1.814,0,0,0,.63.619,2.77,2.77,0,0,0,2.824,0,1.618,1.618,0,0,0,0-2.813c-1.51-1.086-3.574-.185-4.834.869a2.27,2.27,0,0,0-.8,1.608,1.89,1.89,0,0,0,.934,1.749,2.172,2.172,0,0,0,1.586.217A1.792,1.792,0,0,0,280.2,328.6a1.673,1.673,0,0,0-.478-1.151,1.628,1.628,0,0,0-2.781,1.151.065.065,0,0,1,0,.065l.065-.434h0l.163-.391h0l.261-.326h0l.326-.25h0l.38-.163h-.054l.424-.054h-.109l.434.054h-.109l.38.163-.1-.054.326.25h0l.261.326v-.065l.163.391a.185.185,0,0,1,0-.076l.054.435a.535.535,0,0,1,0-.13l-.065.434a.53.53,0,0,1,0-.119l-.163.391a.456.456,0,0,1,.1-.152l-.25.326.185-.185-.326.261a5.429,5.429,0,0,1,1.086-.641l-.391.163a2.868,2.868,0,0,1,.739-.206l-.434.054h.4l-.434-.065a1.445,1.445,0,0,1,.369.109l-.38-.174.228.141v-2.813l-.174.087.391-.163-.25.076.434-.065a1.086,1.086,0,0,1-.326,0l.424.054a1.086,1.086,0,0,1-.25-.065l.391.163a1.51,1.51,0,0,1-.228-.119l.8,1.4-.087-1.564-2.781,1.151h0l-.25-.337h0l-.163-.391h0V325.3h0l.174-.38.261-.326h-.054l.326-.25h-.1l.38-.163a.217.217,0,0,1-.119,0l.434-.054h-.076l.434.065h-.076l.391.163h0l.326.261-.054-.065.25.337a.338.338,0,0,1-.054-.109l.163.391h0l.054.434v-.163l-.054.434v-.109l-.163.38a.782.782,0,0,1,.12-.206l-.261.337.174-.174-.326.261.185-.109-.391.163a.858.858,0,0,1,.239-.065l-.434.065a.814.814,0,0,1,.282,0l-.434-.054a1.817,1.817,0,0,1,.326.087l-.391-.163a1.564,1.564,0,0,1,.337.206l-.326-.261a1.8,1.8,0,0,1,.282.293l-.25-.337a1.836,1.836,0,0,1,.206.348l-.163-.391a1.085,1.085,0,0,1,.087.326v-.435a1.228,1.228,0,0,1,0,.282l.065-.434a1.974,1.974,0,0,1-.076.272l.163-.38a.809.809,0,0,1-.076.13l2.976.391a1.586,1.586,0,0,1-.054-.217l.065.424a1.089,1.089,0,0,1,0-.272l-.054.434a1.083,1.083,0,0,1,.076-.272l-.163.391a1.268,1.268,0,0,1,.163-.293l-.25.326a1,1,0,0,1,.239-.239l-.337.25.239-.141-.38.163.261-.076-.434.065h.119l-1.575-1.195v-.6a.621.621,0,0,1,0,.152l.163-.38-.1.141.261-.337-.076.087.326-.261a.624.624,0,0,1-.141.087l.391-.163h-.109l.434-.065h-.109l.424.054h-.152l.391.163-.1-.054.326.25-.119-.109.261.326a.38.38,0,0,1-.087-.141l.163.391a.4.4,0,0,1,0-.163l.054.434a.369.369,0,0,1,0-.109l-.065.434a.413.413,0,0,1,0-.109,1.634,1.634,0,1,0-3.15-.869Z" transform="translate(399.501 7304.611)"/>
      <path id="Path_10758" data-name="Path 10758" d="M244.677,311.406l-1.847,6.2,3.2.434v-.673c0-.217-.065.358,0,.054l.065-.38a5.341,5.341,0,0,1,.174-.543l.065-.185c.065-.152,0-.119-.054.13a2.771,2.771,0,0,0,.119-.261c.1-.185.2-.369.3-.543l.2-.282c.185-.282-.25.282,0,0a6.5,6.5,0,0,1,.456-.5l.217-.185.141-.13c-.206.163-.239.185-.1.087l-2.227-.587.1.174c.076.152.065.109,0-.119a2.5,2.5,0,0,0,.109.38v-.141a.588.588,0,0,1,0,.2c0,.174,0,.13,0-.141v.2l3.2.435V313.7a1.64,1.64,0,0,0-1.629-1.629,1.662,1.662,0,0,0-1.629,1.629,4.942,4.942,0,0,0,.673,2.813,1.64,1.64,0,0,0,2.172.576,1.662,1.662,0,0,0,.587-2.227l-.1-.185c-.174-.293.065.25,0,.065a3.229,3.229,0,0,1-.13-.445,1.159,1.159,0,0,0,0-.206.565.565,0,1,0,0,.119,4.008,4.008,0,0,1,0-.511h-3.259v1.325a1.64,1.64,0,0,0,3.2.434,3.856,3.856,0,0,0-.445-3.052,1.64,1.64,0,0,0-2.172-.587,7.451,7.451,0,0,0-3.183,6.2,1.629,1.629,0,0,0,3.193.424l1.847-6.2a1.64,1.64,0,0,0-1.086-2,1.662,1.662,0,0,0-2,1.141Z" transform="translate(396.611 7303.47)"/>
    </g>
  </g>
</svg>
