<svg xmlns="http://www.w3.org/2000/svg" width="63.849" height="52.196" viewBox="0 0 63.849 52.196">
  <g id="offline" transform="translate(-244 -1097.804)">
    <rect id="Rectangle_146" data-name="Rectangle 146" width="47" height="47" rx="9" transform="translate(244 1103)" fill="#fdb137"/>
    <g id="no-wifi" transform="translate(251.144 1044.895)">
      <g id="Group_9253" data-name="Group 9253" transform="translate(30.673 71.842)">
        <g id="Group_9252" data-name="Group 9252" transform="translate(0 0)">
          <path id="Path_10820" data-name="Path 10820" d="M289.5,223.575a13.016,13.016,0,1,0,13.016,13.016A13.032,13.032,0,0,0,289.5,223.575Zm0,23.666a10.65,10.65,0,1,1,10.65-10.65A10.663,10.663,0,0,1,289.5,247.241Z" transform="translate(-276.485 -223.575)"/>
        </g>
      </g>
      <g id="Group_9255" data-name="Group 9255" transform="translate(34.139 75.311)">
        <g id="Group_9254" data-name="Group 9254" transform="translate(0 0)">
          <path id="Path_10821" data-name="Path 10821" d="M326.484,271.926l-16.732-16.734a1.183,1.183,0,1,0-1.673,1.673L324.81,273.6a1.183,1.183,0,1,0,1.673-1.673Z" transform="translate(-307.732 -254.845)"/>
        </g>
      </g>
      <g id="Group_9257" data-name="Group 9257" transform="translate(0 52.909)">
        <g id="Group_9256" data-name="Group 9256" transform="translate(0 0)">
          <path id="Path_10822" data-name="Path 10822" d="M49.2,64.042A32.826,32.826,0,0,0,24.756,52.909,32.826,32.826,0,0,0,.309,64.042a1.183,1.183,0,1,0,1.751,1.59,30.5,30.5,0,0,1,22.7-10.356,30.5,30.5,0,0,1,22.7,10.356,1.183,1.183,0,1,0,1.751-1.59Z" transform="translate(0 -52.909)"/>
        </g>
      </g>
      <g id="Group_9259" data-name="Group 9259" transform="translate(6.084 62.435)">
        <g id="Group_9258" data-name="Group 9258" transform="translate(0 0)">
          <path id="Path_10823" data-name="Path 10823" d="M88.9,144.3a24.365,24.365,0,0,0-33.748,2.776,1.184,1.184,0,0,0,1.751,1.6c8.269-9.1,21.1-10.165,30.506-2.535A1.183,1.183,0,0,0,88.9,144.3Z" transform="translate(-54.843 -138.775)"/>
        </g>
      </g>
      <g id="Group_9261" data-name="Group 9261" transform="translate(12.169 71.868)">
        <g id="Group_9260" data-name="Group 9260">
          <path id="Path_10824" data-name="Path 10824" d="M128.951,225.13A16.685,16.685,0,0,0,110,229.368a1.184,1.184,0,0,0,.876,1.981,1.175,1.175,0,0,0,.876-.391,14.305,14.305,0,0,1,16.259-3.659,1.183,1.183,0,0,0,.944-2.17Z" transform="translate(-109.69 -223.809)"/>
        </g>
      </g>
      <g id="Group_9263" data-name="Group 9263" transform="translate(18.839 81.309)">
        <g id="Group_9262" data-name="Group 9262">
          <path id="Path_10825" data-name="Path 10825" d="M180.231,317.717a15.261,15.261,0,0,1-.947-5.259c0-.523.028-1.037.078-1.548a1.182,1.182,0,0,0-.561-1.127,5.909,5.909,0,1,0,1.167,9.166A1.185,1.185,0,0,0,180.231,317.717Z" transform="translate(-169.818 -308.908)"/>
        </g>
      </g>
    </g>
  </g>
</svg>
