<svg xmlns="http://www.w3.org/2000/svg" width="53.353" height="53.755" viewBox="0 0 53.353 53.755">
  <g id="star" transform="translate(-476 -1261.745)">
    <rect id="Rectangle_146" data-name="Rectangle 146" width="47" height="47" rx="9" transform="translate(476 1268.5)" fill="#fdb137"/>
    <g id="XMLID_1159_" transform="translate(480.022 1261.745)">
      <g id="XMLID_2123_" transform="translate(2.066 0)">
        <g id="XMLID_2119_" transform="translate(1.729)">
          <path id="XMLID_871_" d="M31.2,42.005a3.489,3.489,0,0,1-2.056-.68,3.446,3.446,0,0,1-1.271-3.915l3.573-10.965L22.1,19.7A3.5,3.5,0,0,1,24.15,13.36H35.671L39.187,2.428A3.446,3.446,0,0,1,42.513,0h0a3.446,3.446,0,0,1,3.328,2.42l3.547,10.94h1.249a.931.931,0,0,1,0,1.861H48.716a.931.931,0,0,1-.885-.644L44.075,2.994a1.6,1.6,0,0,0-1.558-1.133h0A1.6,1.6,0,0,0,40.959,3L37.236,14.576a.931.931,0,0,1-.886.646H24.15a1.638,1.638,0,0,0-.959,2.966l9.9,7.146a.931.931,0,0,1,.34,1.043l-3.783,11.61a1.638,1.638,0,0,0,2.521,1.831l9.869-7.191a.93.93,0,0,1,1.1,0l9.835,7.148a1.638,1.638,0,0,0,2.519-1.835L51.7,26.386a.931.931,0,0,1,.338-1.044l9.872-7.158a1.638,1.638,0,0,0-.961-2.963H59.018a.931.931,0,1,1,0-1.861h1.926A3.5,3.5,0,0,1,63,19.692l-9.322,6.759,3.578,10.907a3.5,3.5,0,0,1-5.382,3.921l-9.287-6.75-9.322,6.792a3.488,3.488,0,0,1-2.06.684Z" transform="translate(-20.643 0)"/>
        </g>
        <g id="XMLID_2151_" transform="translate(22.702 38.261)">
          <path id="XMLID_856_" d="M246.931,420.511a.931.931,0,0,1-.931-.931v-7.527a.931.931,0,1,1,1.861,0v7.527A.931.931,0,0,1,246.931,420.511Z" transform="translate(-246 -411.123)"/>
        </g>
        <g id="XMLID_2150_" transform="translate(38.244 26.968)">
          <path id="XMLID_855_" d="M421.1,293.967a.931.931,0,0,1-.288-.046l-7.158-2.326a.931.931,0,0,1,.575-1.77l7.158,2.326a.931.931,0,0,1-.288,1.816Z" transform="translate(-413.011 -289.78)"/>
        </g>
        <g id="XMLID_2152_" transform="translate(32.308 2.607)">
          <path id="XMLID_854_" d="M350.148,35.965a.931.931,0,0,1-.752-1.478L353.82,28.4a.931.931,0,0,1,1.506,1.094L350.9,35.581A.929.929,0,0,1,350.148,35.965Z" transform="translate(-349.218 -28.014)"/>
        </g>
        <g id="XMLID_2154_" transform="translate(8.671 2.607)">
          <path id="XMLID_853_" d="M100.6,35.965a.93.93,0,0,1-.754-.384L95.42,29.492A.931.931,0,1,1,96.925,28.4l4.424,6.089a.931.931,0,0,1-.752,1.478Z" transform="translate(-95.242 -28.015)"/>
        </g>
        <g id="XMLID_2156_" transform="translate(0 26.968)">
          <path id="XMLID_852_" d="M3,293.966a.931.931,0,0,1-.287-1.816l7.158-2.326a.931.931,0,0,1,.575,1.77L3.285,293.92a.932.932,0,0,1-.288.046Z" transform="translate(-2.066 -289.778)"/>
        </g>
      </g>
      <g id="XMLID_1847_" transform="translate(37.051 13.36)">
        <g id="XMLID_1848_">
          <path id="XMLID_851_" d="M378.921,145.421a.931.931,0,1,1,.658-.273A.937.937,0,0,1,378.921,145.421Z" transform="translate(-377.99 -143.56)"/>
        </g>
      </g>
    </g>
  </g>
</svg>
